<svg width="46" height="46" viewBox="0 0 46 46" fill="none" xmlns="http://www.w3.org/2000/svg">
<path fill-rule="evenodd" clip-rule="evenodd" d="M15.2708 39.0116C15.3071 39.3341 15.3313 39.6667 15.3394 40.0114V45.7104H0.272705V40.0114C0.353341 36.4393 2.06889 34.0766 4.31658 32.9175C6.4111 34.373 9.20107 34.373 11.2954 32.9175C11.6341 33.0909 11.9607 33.2945 12.2691 33.5223L9.88425 34.1614C8.79766 34.4517 7.9752 35.2278 7.71515 36.3325C7.22328 38.4492 9.00935 40.6908 11.4567 40.0357L15.2687 39.0116L15.2708 39.0116ZM18.4055 29.9199L14.16 34.1654L10.1685 35.2339C7.70111 35.8971 8.70095 39.6265 11.1684 38.9653L15.5409 37.7921C15.9098 37.7155 16.2485 37.5381 16.5146 37.268L21.133 32.6516C21.8809 31.8996 21.8809 30.672 21.133 29.92C20.3811 29.1681 19.1514 29.1681 18.4015 29.92L18.4055 29.9199ZM7.80804 32.8994C10.5759 32.8994 12.8236 30.6557 12.8236 27.8838C12.8236 25.114 10.5759 22.8683 7.80804 22.8683C5.04021 22.8683 2.79246 25.116 2.79246 27.8838C2.79246 30.6517 5.03618 32.8994 7.80804 32.8994ZM36.3028 13.5628C36.3028 11.7324 35.9339 9.98459 35.2667 8.39798L32.6783 9.89376C33.1097 11.0327 33.3496 12.2685 33.3496 13.5627C33.3496 19.2777 28.715 23.9104 22.9998 23.9104C17.2869 23.9104 12.6521 19.2779 12.6521 13.5627C12.6521 7.84981 17.2846 3.21499 22.9998 3.21499C26.2313 3.21499 29.1178 4.69668 31.0149 7.01698L33.5993 5.52523C31.1721 2.32601 27.328 0.259766 22.9997 0.259766C15.654 0.259766 9.69696 6.2147 9.69696 13.5625C9.69696 20.9103 15.654 26.8652 22.9997 26.8652C30.3454 26.8652 36.3024 20.9082 36.3024 13.5625L36.3028 13.5628ZM30.0414 7.58156C28.348 5.58782 25.8201 4.32387 22.9996 4.32387C17.8974 4.32387 13.763 8.45846 13.763 13.5625C13.763 18.6668 17.8976 22.8012 22.9996 22.8012C28.1016 22.8012 32.2383 18.6626 32.2383 13.5625C32.2383 12.4699 32.0508 11.4257 31.704 10.4541L29.0794 11.97C30.1135 15.9272 27.134 19.8442 22.9995 19.8442C19.5322 19.8442 16.72 17.032 16.72 13.5605C16.72 10.0912 19.5322 7.27687 22.9995 7.27687C24.7231 7.27687 26.2834 7.9683 27.4184 9.09117L30.0431 7.57722L30.0414 7.58156ZM22.1713 12.1234L26.4148 9.67407C25.5036 8.87576 24.3102 8.38792 22.9998 8.38792C20.1433 8.38792 17.8273 10.7062 17.8273 13.5625C17.8273 16.4191 20.1415 18.7351 22.9998 18.7351C26.2737 18.7351 28.7086 15.7415 28.0759 12.5505L23.8304 15.0019C23.0361 15.4595 22.0181 15.1853 21.5625 14.391C21.1069 13.5968 21.379 12.5808 22.1733 12.1232L22.1713 12.1234ZM22.7236 13.085C22.4616 13.2362 22.3709 13.5748 22.5221 13.8389C22.6733 14.103 23.0119 14.1917 23.274 14.0425L37.2399 5.97892L36.6875 5.66041V5.02337L22.7232 13.0828L22.7236 13.085ZM43.8443 3.19708L42.3989 2.3645V0.697341L37.7946 3.35629V5.02345L39.24 5.85603L43.8443 3.19708ZM41.6833 32.9196C39.5847 34.3751 36.7988 34.3751 34.7045 32.9196C34.3658 33.093 34.0392 33.2966 33.7308 33.5244L36.1156 34.1634C37.2022 34.4537 38.0247 35.2298 38.2807 36.3345C38.7766 38.4513 36.9885 40.6929 34.5412 40.0378L30.7291 39.0137C30.6908 39.3362 30.6687 39.6688 30.6606 40.0136V45.7125H45.7273V40.0136C45.6466 36.4414 43.931 34.0787 41.6833 32.9196ZM35.831 35.2339L31.8396 34.1654L27.5941 29.9199C26.8421 29.168 25.6145 29.168 24.8625 29.9199C24.1146 30.6719 24.1146 31.8995 24.8625 32.6515L29.4809 37.2679C29.749 37.538 30.0857 37.7154 30.4546 37.792L34.8271 38.9653C37.2945 39.6244 38.2945 35.8971 35.827 35.2338L35.831 35.2339ZM33.1781 27.8861C33.1781 30.6559 35.4259 32.9016 38.1937 32.9016C40.9616 32.9016 43.2093 30.6579 43.2093 27.8861C43.2093 25.1162 40.9656 22.8705 38.1937 22.8705C35.4239 22.8705 33.1781 25.1182 33.1781 27.8861Z" fill="white"/>
</svg>
