<svg width="46" height="45" viewBox="0 0 46 45" fill="none" xmlns="http://www.w3.org/2000/svg">
<path d="M9.75285 23.4222C9.69202 23.2926 9.59152 23.2001 9.46192 23.1525L5.03983 21.4942C4.77006 21.3937 4.4712 21.5286 4.37069 21.7983L2.7944 26.0036V26.0115L0.0332356 33.3773C-0.0672689 33.6471 0.0676185 33.946 0.33739 34.0465L4.75948 35.7048C5.02925 35.8053 5.32811 35.6704 5.42862 35.4006L9.7767 23.8166C9.81373 23.687 9.80575 23.5518 9.75285 23.4222Z" fill="white"/>
<path d="M13.1037 36.4768C13.1169 36.4504 13.1381 36.4372 13.1513 36.4081C13.4899 35.7654 13.1857 34.9455 12.461 34.7022C11.8924 34.5118 11.2682 34.8106 10.9852 35.3396L10.131 36.9371L9.44069 38.2383C9.14976 38.7858 9.26349 39.4973 9.77129 39.8569C10.0834 40.0738 10.4616 40.1347 10.8213 40.0262C11.1122 39.9389 11.3555 39.7353 11.5063 39.4708L13.1037 36.4768Z" fill="white"/>
<path d="M5.32271 20.7269L9.7448 22.3852C10.0754 22.5148 10.3478 22.7581 10.4907 23.0834C10.6388 23.4087 10.652 23.7737 10.525 24.107L10.5118 24.1334L13.8443 24.3556L13.8522 19.0078C13.8522 18.3439 13.9263 17.7012 14.0691 17.0718C14.1643 16.6592 14.0903 16.2175 13.8179 15.8948C13.7174 15.7731 13.6089 15.6568 13.5005 15.5483C12.1992 14.2471 10.4801 13.5991 8.6605 13.7208C5.38361 13.9297 2.81812 16.7887 2.81812 20.2138V23.5912L3.60365 21.5071C3.8602 20.8168 4.63237 20.4704 5.32271 20.7269Z" fill="white"/>
<path d="M14.6744 19.0076L14.6665 24.411L20.1519 24.776C20.5645 24.8024 20.9638 24.9373 21.3103 25.1674L21.8525 25.5271L22.8549 24.7152C23.6801 24.0513 24.8041 23.9032 25.78 24.329L30.0593 26.2254C30.3026 26.3338 30.575 26.3682 30.8316 26.347L30.8289 19.0076C30.8289 18.1612 30.694 17.3149 30.4375 16.495C30.4296 16.4818 30.4296 16.4686 30.4243 16.4554C30.0249 15.2626 29.3611 14.202 28.4619 13.3001C26.9305 11.7767 24.8993 10.9382 22.7543 10.9382C19.2473 10.9382 16.1608 13.1731 15.0764 16.503C14.8013 17.3017 14.6744 18.1428 14.6744 19.0076Z" fill="white"/>
<path d="M31.6358 18.4261V26.0695L34.9815 24.3637L34.9127 24.1732C34.6561 23.483 35 22.7106 35.6982 22.4541L40.1203 20.7958C40.8106 20.5393 41.5829 20.8831 41.8395 21.5813L42.6726 23.8029V20.1875C42.6726 18.5953 42.1569 17.019 41.1016 15.8342C39.8903 14.4721 38.2108 13.7209 36.4097 13.7209C34.5742 13.7209 32.8762 14.5144 31.7046 15.8738C31.4137 16.2124 31.3264 16.6673 31.4269 17.0984C31.5274 17.5321 31.6358 17.9739 31.6358 18.4261Z" fill="white"/>
<path d="M21.6328 8.61588C24.7404 9.4411 27.5043 6.67194 26.6764 3.56432C26.3167 2.20225 25.2138 1.09937 23.8465 0.734362C20.7388 -0.0908531 17.975 2.6783 18.7949 5.78592C19.1705 7.14535 20.2733 8.24823 21.6328 8.61588Z" fill="white"/>
<path d="M35.529 12.0888C37.9992 12.7447 40.1997 10.5442 39.5518 8.07395C39.2661 6.98955 38.388 6.11153 37.3037 5.82059C34.8335 5.16468 32.633 7.36512 33.2809 9.83542C33.5639 10.9251 34.4367 11.8031 35.529 12.0888Z" fill="white"/>
<path d="M8.19482 12.0888C10.6651 12.7447 12.8655 10.5442 12.2176 8.07395C11.9319 6.98955 11.0538 6.11153 9.96949 5.82059C7.49927 5.16468 5.29079 7.36512 5.94674 9.83542C6.22974 10.9251 7.10514 11.8031 8.19482 12.0888Z" fill="white"/>
<path d="M20.9719 42.2874L21.5538 41.1898C21.8103 40.7085 21.7495 40.087 21.3501 39.714C20.7603 39.1586 19.8796 39.3279 19.4882 39.9521L17.8775 42.9778C17.8643 43.0042 17.8431 43.0174 17.8299 43.0465C17.5178 43.6363 17.7426 44.361 18.3298 44.6704C18.6154 44.8185 18.9381 44.8529 19.2502 44.7577C19.5543 44.6625 19.8109 44.4535 19.9616 44.1679L20.9719 42.2874Z" fill="white"/>
<path d="M41.0721 21.8669C40.9902 21.6579 40.7944 21.5283 40.5855 21.5283C40.5247 21.5283 40.4638 21.5415 40.403 21.5627L35.9809 23.221C35.7111 23.3215 35.5736 23.6283 35.6768 23.8901L40.0249 35.4741C40.1254 35.7439 40.4322 35.8814 40.694 35.7783L45.1161 34.12C45.3859 34.0195 45.5234 33.7127 45.4202 33.4429L41.0721 21.8669Z" fill="white"/>
<path d="M31.7624 26.9231C31.125 27.2484 30.3738 27.2696 29.718 26.976L25.4466 25.0797C24.7563 24.7755 23.9496 24.876 23.3625 25.3494L16.8007 30.6364C16.6235 30.7793 16.6182 31.049 16.7928 31.1839C18.2818 32.3423 20.395 32.3609 21.9184 31.176L22.7119 30.5518C23.2594 30.126 24.0131 30.0572 24.6214 30.3957L27.3562 31.8795C27.782 32.1096 28.2633 32.226 28.7447 32.218L29.1362 32.2101C29.7868 32.1969 30.4295 32.3582 30.9902 32.6782L33.4472 34.0668C33.4551 34.0747 33.4684 34.0747 33.4737 34.0747L33.9947 34.3603C34.0476 34.3868 34.0952 34.4291 34.1428 34.4608L34.7326 34.7914C35.2192 35.0691 35.8011 35.1035 36.3168 34.8919L38.5781 33.9768L35.2456 25.1011L31.7624 26.9231Z" fill="white"/>
<path d="M15.9332 38.0349C16.1845 37.5615 16.1289 36.9505 15.7428 36.5803C15.4995 36.3422 15.1953 36.2285 14.8885 36.2285C14.7669 36.2285 14.6505 36.2497 14.5368 36.2814C14.2458 36.3687 14.0078 36.5723 13.8518 36.8368L12.2596 39.836C12.2464 39.8625 12.2252 39.8757 12.212 39.9048C12.0639 40.1905 12.0295 40.5131 12.1247 40.8199C12.2199 41.132 12.4288 41.3806 12.7145 41.5314C13.0001 41.6795 13.3228 41.7139 13.6349 41.6187C13.947 41.5235 14.1956 41.3145 14.3464 41.0289L15.9332 38.0349Z" fill="white"/>
<path d="M33.7728 35.2045L30.5963 33.4113C30.1573 33.1601 29.6548 33.0516 29.1602 33.0464L28.7608 33.0543C28.1367 33.0675 27.5231 32.9115 26.973 32.6205L24.2382 31.1368C23.9129 30.9596 23.5083 30.994 23.2147 31.2241L22.4212 31.8483C20.4429 33.3928 17.6076 33.2235 15.833 31.441C15.6849 31.2929 15.6108 31.0892 15.6161 30.8803C15.6293 30.6713 15.7245 30.473 15.8859 30.346L21.1808 26.0799L20.8555 25.8631C20.6333 25.715 20.3688 25.625 20.0964 25.6065L14.2593 25.2151L10.2233 24.9453L6.62903 34.5245L9.62297 36.1961L10.2524 35.0112C10.747 34.0776 11.871 33.5883 12.8443 33.9824C13.5558 34.2733 13.9948 34.9028 14.0821 35.5931C14.6296 35.355 15.2749 35.3497 15.8356 35.646C16.4386 35.9633 16.8036 36.5452 16.8856 37.1773C17.4357 36.9313 18.0863 36.9234 18.655 37.2276C19.2501 37.5449 19.623 38.1215 19.705 38.751C20.3344 38.4733 21.0935 38.5129 21.7151 38.9678C22.5349 39.5762 22.7227 40.7346 22.244 41.6365L21.8843 42.3135L25.9996 44.5008C26.6079 44.805 27.3406 44.5537 27.6447 44.0009C27.8616 43.5804 27.814 43.0673 27.5151 42.6997C27.5072 42.6917 27.5019 42.6785 27.494 42.6653C27.486 42.6521 27.4807 42.6441 27.4728 42.6309C27.4384 42.5701 27.4199 42.5092 27.4199 42.4405C27.4199 42.2183 27.6024 42.0279 27.8272 42.0279C27.9092 42.0279 27.9833 42.0543 28.0494 42.1019C28.0573 42.1099 28.0626 42.1019 28.0705 42.1099L28.4223 42.2924C29.0465 42.6045 29.7685 42.3532 30.0542 41.7978C30.2631 41.3984 30.2314 40.9118 29.9722 40.5388L29.3639 40.2082C29.1682 40.0998 29.0941 39.8565 29.1946 39.6528C29.303 39.4571 29.5464 39.3831 29.75 39.4915L30.4403 39.8644C30.4482 39.8724 30.4614 39.8724 30.4667 39.8776C31.1041 40.195 31.8077 39.9305 32.1065 39.3778C32.371 38.8832 32.2494 38.2617 31.8209 37.902C31.813 37.894 31.8077 37.8887 31.7944 37.8808L31.2126 37.5634C31.0169 37.455 30.9428 37.2037 31.0512 37.008C31.1597 36.8123 31.4109 36.7382 31.6067 36.8467L32.2705 37.2117C32.2837 37.2196 32.2969 37.2249 32.3102 37.2381L32.4794 37.3254C33.0692 37.6375 33.7992 37.3862 34.1033 36.8044C34.4048 36.2463 34.2488 35.5695 33.7728 35.2045Z" fill="white"/>
<path d="M18.7288 39.6399C18.742 39.6135 18.7632 39.6002 18.7764 39.5712C19.1149 38.9285 18.8108 38.1085 18.0861 37.8653C17.5175 37.6748 16.8933 37.9737 16.6156 38.5027L15.0711 41.4014C14.7801 41.9488 14.8939 42.6682 15.4017 43.0252C15.7138 43.2421 16.0919 43.295 16.4517 43.1945C16.7426 43.1072 16.9859 42.9036 17.1367 42.6391L18.7288 39.6399Z" fill="white"/>
</svg>
