<svg width="46" height="46" viewBox="0 0 46 46" fill="none" xmlns="http://www.w3.org/2000/svg">
<path fill-rule="evenodd" clip-rule="evenodd" d="M24.99 9.67422C27.9034 10.0973 30.5186 11.4373 32.5379 13.3899C31.3313 13.9317 29.8934 14.3714 28.2929 14.6757C28.1303 14.2089 27.9574 13.7651 27.7698 13.3482C27.0175 11.6623 26.0674 10.3848 24.99 9.67422ZM44.8942 1.35063C43.7835 0.239894 41.9829 0.239894 40.8742 1.35063C39.7635 2.46137 39.7635 4.26191 40.8742 5.37062C41.9849 6.48136 43.7855 6.48136 44.8942 5.37062C46.0049 4.25989 46.0049 2.45934 44.8942 1.35063ZM40.9951 6.87711L39.3675 5.24952C38.0108 3.89284 35.7914 3.89284 34.4348 5.24952L32.4258 7.25845C32.1737 7.51061 32.1737 7.92324 32.4258 8.17542L33.1615 8.91106L35.781 6.29149C35.9728 6.09976 36.2833 6.09976 36.4729 6.29149C36.6646 6.48322 36.6646 6.79373 36.4729 6.98338L33.8533 9.60295L36.6417 12.3913L39.2613 9.77175C39.453 9.58002 39.7635 9.58002 39.9532 9.77175C40.1449 9.96348 40.1449 10.274 39.9532 10.4636L37.3336 13.0832L38.0692 13.8188C38.3214 14.071 38.734 14.071 38.9862 13.8188L40.9951 11.8099C42.3518 10.4532 42.3518 8.23379 40.9951 6.87711ZM39.3675 41.2395L40.9951 39.612C42.3518 38.2553 42.3518 36.0359 40.9951 34.6792L38.9862 32.6703C38.734 32.4181 38.3214 32.4181 38.0692 32.6703L37.3336 33.4059L39.9531 36.0255C40.1448 36.2172 40.1448 36.5277 39.9531 36.7174C39.7614 36.9091 39.4509 36.9091 39.2612 36.7174L36.6417 34.0978L33.8533 36.8862L36.4729 39.5057C36.6646 39.6975 36.6646 40.008 36.4729 40.1976C36.2811 40.3894 35.9706 40.3894 35.781 40.1976L33.1614 37.5781L32.4258 38.3137C32.1736 38.5659 32.1736 38.9785 32.4258 39.2307L34.4347 41.2396C35.7914 42.5963 38.0108 42.5962 39.3675 41.2395ZM44.894 45.1386C43.7832 46.2494 41.9827 46.2494 40.874 45.1386C39.7633 44.0279 39.7633 42.2274 40.874 41.1187C41.9847 40.0079 43.7853 40.0079 44.894 41.1187C46.0047 42.2294 46.0047 44.0299 44.894 45.1386ZM1.10576 45.1386C2.2165 46.2494 4.01704 46.2494 5.12575 45.1386C6.23649 44.0279 6.23649 42.2274 5.12575 41.1187C4.01501 40.0079 2.21447 40.0079 1.10576 41.1187C-0.00497917 42.2294 -0.00497917 44.0299 1.10576 45.1386ZM5.00486 39.6122C3.64818 38.2555 3.64818 36.0361 5.00486 34.6794L7.01379 32.6705C7.26595 32.4183 7.67858 32.4183 7.93076 32.6705L8.6664 33.4061L6.04683 36.0257C5.8551 36.2174 5.8551 36.5279 6.04683 36.7176C6.23856 36.9093 6.54907 36.9093 6.73872 36.7176L9.35829 34.098L12.1467 36.8864L9.52709 39.5059C9.33536 39.6977 9.33536 40.0082 9.52709 40.1978C9.71881 40.3896 10.0293 40.3896 10.219 40.1978L12.8385 37.5783L13.5742 38.3139C13.8263 38.5661 13.8263 38.9787 13.5742 39.2309L11.5653 41.2398C10.2086 42.5965 7.98918 42.5965 6.6325 41.2398L5.00486 39.6122ZM6.63245 5.24973L5.00486 6.87732C3.64818 8.234 3.64818 10.4534 5.00486 11.8101L7.01379 13.819C7.26595 14.0712 7.67858 14.0712 7.93076 13.819L8.6664 13.0834L6.04683 10.4638C5.8551 10.2721 5.8551 9.96156 6.04683 9.77191C6.23856 9.58018 6.54907 9.58018 6.73872 9.77191L9.35829 12.3915L12.1467 9.60311L9.52709 6.98354C9.33536 6.79181 9.33536 6.4813 9.52709 6.29165C9.71881 6.09992 10.0293 6.09992 10.219 6.29165L12.8385 8.91122L13.5742 8.17558C13.8263 7.92342 13.8263 7.51079 13.5742 7.25861L11.5653 5.24968C10.2086 3.893 7.98913 3.89306 6.63245 5.24973ZM1.10597 1.35063C2.21671 0.239894 4.01725 0.239894 5.12596 1.35063C6.2367 2.46137 6.2367 4.26191 5.12596 5.37062C4.01523 6.48136 2.21468 6.48136 1.10597 5.37062C-0.00476548 4.25989 -0.00476548 2.45934 1.10597 1.35063ZM16.2999 7.66081C16.0519 7.7671 15.7643 7.65248 15.656 7.40448C15.5497 7.15649 15.6643 6.86891 15.9123 6.76056C17.0106 6.2875 18.1693 5.92073 19.3759 5.67271C20.5512 5.43097 21.7641 5.30384 22.9999 5.30384C24.2357 5.30384 25.4485 5.43096 26.6239 5.67271C27.8305 5.9207 28.9892 6.28745 30.0875 6.76056C30.3355 6.86684 30.4501 7.15442 30.3438 7.40448C30.2375 7.65247 29.95 7.7671 29.6999 7.66081C28.6558 7.21068 27.5597 6.86265 26.4281 6.63133C25.3257 6.40418 24.1795 6.28539 22.9999 6.28539C21.8204 6.28539 20.6721 6.40418 19.5718 6.63133C18.4381 6.86265 17.344 7.21065 16.2999 7.66081ZM38.584 16.5446C38.4777 16.2966 38.5923 16.009 38.8403 15.9006C39.0883 15.7944 39.3759 15.909 39.4843 16.157C39.9573 17.2552 40.3241 18.4139 40.5721 19.6205C40.8139 20.7959 40.941 22.0088 40.941 23.2446C40.941 24.4804 40.8139 25.6932 40.5721 26.8686C40.3241 28.0752 39.9574 29.2339 39.4843 30.3322C39.378 30.5802 39.0904 30.6948 38.8403 30.5885C38.5923 30.4822 38.4777 30.1946 38.584 29.9446C39.0341 28.9005 39.3822 27.8043 39.6135 26.6727C39.8406 25.5703 39.9594 24.4242 39.9594 23.2446C39.9594 22.065 39.8406 20.9189 39.6135 19.8165C39.3822 18.6828 39.0342 17.5886 38.584 16.5446ZM29.7002 38.8287C29.9482 38.7224 30.2358 38.837 30.3442 39.085C30.4505 39.333 30.3358 39.6206 30.0878 39.7289C28.9896 40.202 27.8309 40.5688 26.6243 40.8168C25.4489 41.0585 24.236 41.1857 23.0003 41.1857C21.7645 41.1857 20.5516 41.0585 19.3762 40.8168C18.1696 40.5688 17.0109 40.202 15.9127 39.7289C15.6647 39.6227 15.5501 39.3351 15.6563 39.085C15.7626 38.837 16.0502 38.7224 16.2982 38.8287C17.3443 39.2788 18.4384 39.6268 19.57 39.8582C20.6724 40.0853 21.8186 40.2041 22.9981 40.2041C24.1776 40.2041 25.3259 40.0853 26.4263 39.8582C27.562 39.6268 28.6562 39.2788 29.7002 38.8287ZM7.41615 29.9449C7.52244 30.1929 7.40782 30.4805 7.15982 30.5888C6.91183 30.6951 6.62425 30.5805 6.51798 30.3325C6.04492 29.2343 5.67815 28.0756 5.43013 26.869C5.18839 25.6936 5.06126 24.4807 5.06126 23.2449C5.06126 22.0091 5.18838 20.7963 5.43013 19.6209C5.67812 18.4143 6.04487 17.2556 6.51798 16.1573C6.62426 15.9093 6.91185 15.7947 7.15982 15.901C7.4078 16.0073 7.52244 16.2949 7.41615 16.5449C6.96602 17.5911 6.61799 18.6852 6.38667 19.8168C6.15952 20.9192 6.04073 22.0653 6.04073 23.2449C6.04073 24.4244 6.15952 25.5706 6.38667 26.673C6.61799 27.8067 6.96599 28.9009 7.41615 29.9449ZM33.2363 14.1193C33.2008 14.1527 33.1592 14.1818 33.1112 14.2027C31.8358 14.7966 30.3 15.278 28.589 15.6135C29.1933 17.685 29.558 20.1294 29.5997 22.7554H36.7059C36.5892 19.444 35.2994 16.4309 33.2363 14.1193ZM36.7061 23.7345C36.5894 27.0459 35.2994 30.0591 33.2363 32.3707C33.2008 32.3374 33.1592 32.3082 33.1112 32.2874C31.8358 31.6934 30.3 31.212 28.589 30.8765C29.1933 28.8051 29.558 26.3606 29.5997 23.7346L36.7061 23.7345ZM32.536 33.1C30.5167 35.0527 27.9013 36.3927 24.9882 36.8157C26.0655 36.1051 27.0179 34.8276 27.7681 33.1417C27.9536 32.7249 28.1287 32.281 28.2912 31.8142C29.8917 32.1184 31.3315 32.5581 32.536 33.1ZM21.0115 36.8157C19.932 36.1051 18.9817 34.8276 18.2315 33.1417C18.046 32.7228 17.871 32.281 17.7084 31.8142C16.1079 32.1184 14.67 32.5581 13.4634 33.1C15.4806 35.0527 18.0983 36.3927 21.0115 36.8157ZM12.7631 32.3706C10.7021 30.0595 9.40999 27.0481 9.29331 23.7344H16.3995C16.4391 26.3581 16.8058 28.8047 17.4102 30.8763C15.6993 31.2118 14.1634 31.6932 12.8879 32.2871C12.84 32.308 12.7985 32.3373 12.7631 32.3706ZM9.29331 22.7554C9.41001 19.444 10.7 16.4308 12.7631 14.1192C12.7985 14.1525 12.8402 14.1817 12.8881 14.2026C14.1635 14.7965 15.6994 15.2779 17.4104 15.6134C16.806 17.6848 16.4413 20.1293 16.3997 22.7553L9.29331 22.7554ZM13.4633 13.3899C15.4806 11.4372 18.0981 10.0972 21.0112 9.67422C19.9317 10.3848 18.9814 11.6623 18.2312 13.3482C18.0457 13.765 17.8707 14.2089 17.7081 14.6757C16.1077 14.3715 14.6678 13.9318 13.4633 13.3899ZM26.8781 13.7463C25.8507 11.4435 24.4773 10.0201 22.9998 10.0201C21.5223 10.0201 20.1489 11.4435 19.1216 13.7463C18.9674 14.0922 18.8215 14.459 18.6839 14.8424C20.0365 15.0446 21.4869 15.155 22.9998 15.155C24.5127 15.155 25.9632 15.0446 27.3157 14.8424C27.1781 14.459 27.0323 14.0922 26.8781 13.7463ZM18.3773 15.7823C19.8278 16.0095 21.3824 16.1345 22.9996 16.1345C24.6168 16.1345 26.1714 16.0115 27.6219 15.7823C28.2179 17.785 28.5784 20.1753 28.6201 22.7551H17.3772C17.4189 20.1752 17.7813 17.7869 18.3773 15.7823ZM17.3791 23.7346C17.4187 26.3145 17.7813 28.7028 18.3773 30.7052C19.8278 30.4781 21.3824 30.353 22.9996 30.353C24.6168 30.353 26.1714 30.476 27.6219 30.7052C28.2179 28.7025 28.5784 26.3122 28.6201 23.7346H17.3791ZM18.6837 31.6474C18.8212 32.0308 18.9671 32.3955 19.1213 32.7436C20.1487 35.0463 21.522 36.4697 22.9996 36.4697C24.4771 36.4697 25.8525 35.0463 26.8778 32.7436C27.032 32.3976 27.1779 32.0309 27.3154 31.6474C25.9629 31.4452 24.5125 31.3348 22.9996 31.3348C21.4866 31.3348 20.0361 31.4452 18.6837 31.6474Z" fill="white"/>
</svg>
