<svg width="46" height="45" viewBox="0 0 46 45" fill="none" xmlns="http://www.w3.org/2000/svg">
<path fill-rule="evenodd" clip-rule="evenodd" d="M23.3332 10.2705H19.8147V10.7529C19.8186 11.4793 20.4066 12.0654 21.1311 12.0692H30.0032C30.1626 12.0692 30.3145 12.1326 30.4278 12.2441L32.0651 13.9293L31.7903 12.7168L31.7883 12.7149C31.7211 12.4094 31.9036 12.1038 32.2073 12.0192C32.776 11.8597 33.1719 11.3409 33.1719 10.751V5.66238C33.168 4.93599 32.58 4.34989 31.8536 4.34605H28.8405V7.7723C28.8367 9.15204 27.7202 10.2685 26.3405 10.2723L23.3332 10.2705ZM8.43096 22.5498L13.1255 27.2194L13.6578 27.6594C13.8673 27.8324 14.0344 27.8458 14.3073 27.8151L21.4517 27.0656C22.0301 27.0061 22.2626 26.124 21.7592 25.6763C21.6304 25.5572 21.4594 25.4995 21.2845 25.5149L14.4953 26.2259C14.33 26.2451 14.1648 26.1913 14.0418 26.0779L9.44331 22.3077C9.05514 21.9906 8.60165 22.1674 8.42485 22.5498L8.43096 22.5498ZM13.1255 27.2194L8.43096 22.5498C8.36754 22.6901 8.34449 22.8438 8.3637 22.9956C8.381 23.1955 8.479 23.378 8.63081 23.5068L10.3488 24.9269C10.3718 24.9422 10.393 24.9614 10.4141 24.9807L13.1255 27.2194ZM18.6347 10.2706H17.72L14.7972 13.2684C14.6127 13.4548 14.3283 13.4952 14.0977 13.3722C13.8691 13.2473 13.748 12.9859 13.8018 12.7303L14.4321 9.96128C13.6308 9.52314 13.1292 8.68529 13.1254 7.77255V2.68198C13.1273 1.30416 14.2438 0.18771 15.6216 0.185791H26.3463H26.3444C27.7241 0.187713 28.8406 1.30416 28.8444 2.68198V3.16431H31.8537C33.2315 3.16815 34.3499 4.2846 34.3537 5.66242V10.753C34.348 11.6658 33.8484 12.5036 33.047 12.9417L33.6793 15.7108V15.7127C33.735 15.9683 33.6139 16.2296 33.3833 16.3545C33.1527 16.4794 32.8664 16.4372 32.6819 16.2508L29.7515 13.2492H21.1293C19.7515 13.2453 18.6369 12.1289 18.635 10.753L18.6347 10.2706ZM43.2316 34.8444L45.061 41.6813C45.1456 41.9965 44.9572 42.3212 44.6421 42.4039C44.327 42.4884 44.0041 42.3001 43.9195 41.985L42.1286 35.3133H34.6265L32.5781 42.0047V42.0027C32.5454 42.1661 32.4455 42.3083 32.3033 42.3948C32.1592 42.4793 31.9881 42.5024 31.8286 42.4524C31.6691 42.4044 31.5366 42.291 31.4655 42.1411C31.3944 41.9912 31.3905 41.8163 31.4539 41.6626L33.6177 34.5989C33.6734 34.3241 33.9155 34.1281 34.1961 34.1281H42.1881L44.3038 25.3849C44.4018 25.0928 44.7054 24.9256 45.0052 24.9967C45.3031 25.0697 45.4952 25.3599 45.4472 25.6635L43.2316 34.8444ZM29.0864 27.5844L35.0876 26.5159L36.2233 24.871L36.1752 23.3452C36.0638 20.3109 38.9135 19.2617 40.9966 20.1668C42.0458 20.6223 42.8202 21.5504 42.7472 22.8533C42.7799 23.3952 42.7837 25.8875 42.753 28.0457C42.7299 29.7636 42.6799 31.3009 42.6012 31.5622V31.5603C42.4032 32.2386 41.9824 32.8305 41.4078 33.2398C40.4432 33.9489 39.9474 33.9278 38.904 33.9527C36.9151 33.9989 34.4439 33.9393 32.6067 34.0008L29.8857 42.3485C29.2362 44.4373 26.3749 44.7044 25.3487 42.7751C25.0393 42.1986 24.9759 41.5222 25.1661 40.8957L28.2619 30.7879C27.597 30.1557 27.4702 29.141 27.9544 28.3628C28.2081 27.9535 28.6232 27.671 29.0959 27.5845L29.0864 27.5844ZM35.5318 27.6343L29.2901 28.747C28.7982 28.8334 28.6483 29.6232 29.1133 29.9806C29.1402 29.9998 29.169 30.0171 29.1998 30.0325C29.2055 30.0364 29.2132 30.0402 29.219 30.044C29.317 30.0921 29.4246 30.1075 29.5322 30.0882L36.104 28.9199C36.3461 28.8757 36.4768 28.8296 36.6113 28.6316L40.0337 23.6277C40.345 23.1742 39.9664 22.4689 39.4303 22.565L39.4284 22.5669C39.2862 22.5957 39.1613 22.6764 39.0786 22.7956C38.0563 24.3233 36.9802 25.8394 35.9387 27.3556H35.9368C35.8484 27.5035 35.7004 27.6054 35.5294 27.6342L35.5318 27.6343ZM38.4892 12.0827C40.0765 12.1404 41.4735 13.1473 42.0288 14.6346C42.5842 16.122 42.1902 17.7977 41.0276 18.8814C39.865 19.9633 38.1644 20.2381 36.7212 19.579C35.2762 18.9199 34.3711 17.4556 34.4268 15.8683C34.4633 14.8268 34.9111 13.8429 35.674 13.1338C36.4369 12.4228 37.4496 12.0462 38.4892 12.0827ZM40.3608 14.1331C38.6929 12.3422 35.6855 13.472 35.6029 15.9049C35.5183 18.3377 38.4334 19.6809 40.2263 18.0129C41.3351 16.9772 41.3966 15.24 40.3627 14.1293L40.3608 14.1331ZM2.25291 34.8461L0.0296037 25.6627C-0.022281 25.5051 -0.00498589 25.3341 0.0738008 25.1899C0.154508 25.0458 0.290947 24.942 0.450443 24.9036C0.611857 24.8633 0.780961 24.894 0.9174 24.9843C1.05576 25.0766 1.148 25.2207 1.17298 25.384L3.29062 34.1292H11.2846C11.5632 34.1292 11.8054 34.3271 11.8611 34.6L14.0248 41.6637L14.0268 41.6656C14.094 41.9673 13.9172 42.271 13.6213 42.3613C13.3234 42.4497 13.0083 42.296 12.8987 42.0058L10.8503 35.3144H3.34822L1.56111 41.9846C1.47079 42.2921 1.1518 42.4689 0.844355 42.3882C0.53497 42.3055 0.34858 41.9923 0.421594 41.681L2.25291 34.8461ZM21.012 24.36L21.1676 24.3427C22.7722 24.1755 23.8349 26.151 22.8279 27.5096C22.532 27.9189 22.0766 28.1821 21.575 28.2379L15.2182 28.9085L15.2201 28.9066C16.1194 29.0815 16.8496 29.7348 17.1206 30.6091L20.2682 40.8975C20.91 42.994 18.6848 44.8273 16.7497 43.7973C16.1751 43.4917 15.7447 42.9709 15.5506 42.3503L12.8296 34.0026C10.9887 33.9411 8.51942 34.0026 6.53234 33.9545C5.48889 33.9296 4.99311 33.9488 4.02847 33.2416C2.96968 32.4672 2.56801 31.32 2.69488 29.9556C2.69488 29.9326 2.70064 29.9095 2.70641 29.8884C3.00234 28.2762 3.34248 26.4582 3.82862 24.8155C4.33015 23.1111 4.98546 21.5814 5.89436 20.6187C7.52007 18.8873 10.4121 19.3715 12.0264 20.7897L14.415 22.8901L19.2786 21.3162C20.7813 20.8339 22.1457 22.4193 21.4155 23.8393L21.4136 23.8374C21.3136 24.0354 21.1772 24.2121 21.0119 24.3582L21.012 24.36ZM13.4425 28.8854C13.2504 28.8086 13.0716 28.701 12.916 28.5684L10.3487 26.4488C10.1815 27.0464 10.0162 27.5403 9.8798 27.9438C9.67035 28.5761 9.50124 28.8528 9.53199 28.8777C9.64152 28.9757 10.341 28.9585 11.8168 28.9239C12.2857 28.9104 12.8237 28.895 13.4444 28.8874L13.4425 28.8854ZM9.48395 12.6997C7.04542 12.7843 5.91357 15.7897 7.70452 17.4577C9.49354 19.1256 12.4125 17.7844 12.3279 15.3496C12.303 14.6194 11.9897 13.9315 11.4555 13.4338C10.9233 12.938 10.2123 12.6728 9.48395 12.6997ZM6.70721 12.7689C7.78908 11.6063 9.46477 11.2123 10.954 11.7677C12.4413 12.323 13.4483 13.7201 13.504 15.3073C13.5597 16.8946 12.6546 18.3589 11.2096 19.018C9.76642 19.6771 8.06579 19.4023 6.9032 18.3185C5.31783 16.8408 5.2295 14.356 6.70721 12.7689ZM23.4026 5.73369L20.0301 7.67453C19.8476 7.78021 19.6227 7.78021 19.4402 7.67453C19.2576 7.57076 19.1462 7.37667 19.1442 7.16724V3.26824C19.1442 3.0511 19.2634 2.84933 19.4555 2.74556C19.6496 2.64371 19.8822 2.65524 20.0647 2.7763L23.4103 4.70563C23.5928 4.81324 23.7043 5.00733 23.7043 5.22064C23.7024 5.43202 23.589 5.62611 23.4045 5.7299L23.4026 5.73369Z" fill="white"/>
</svg>
