<svg width="51" height="54" viewBox="0 0 51 54" fill="none" xmlns="http://www.w3.org/2000/svg">
<path d="M49.5442 28.1254H1.00159C0.598774 28.1254 0.272705 28.4515 0.272705 28.8521C0.272705 35.4824 2.90698 41.8404 7.59592 46.5289C12.2849 51.2173 18.6424 53.8521 25.2727 53.8521C31.9029 53.8521 38.261 51.2178 42.9494 46.5289C47.6532 41.8507 50.2895 35.4868 50.2726 28.8521C50.2726 28.6603 50.1959 28.4749 50.0595 28.3385C49.9231 28.2021 49.7381 28.1254 49.5442 28.1254ZM45.565 40.7787L41.2001 39.5404C41.0424 39.4956 40.874 39.5042 40.7227 39.5681L34.41 42.2066L29.0519 38.447C28.7961 38.268 28.453 38.2723 28.2015 38.4598L20.3223 44.3443C20.1689 44.4572 20.0666 44.6277 20.0367 44.8153L19.457 48.5877L18.0695 51.2668C15.3095 50.3759 12.7392 48.9841 10.4844 47.1576L9.57647 40.039L11.0875 36.1175L15.7401 33.0526C15.8638 32.9695 15.9618 32.8523 16.0172 32.7116L17.2533 29.5786H33.9349L32.833 30.4311C32.6561 30.5675 32.5517 30.7807 32.5517 31.0045V35.9065C32.5517 36.3093 32.8757 36.6353 33.2785 36.6353H38.7837C38.9265 36.6332 39.065 36.5927 39.1844 36.5139L45.896 32.0637C46.1986 31.8634 46.3073 31.4713 46.1517 31.1451L45.4058 29.5786H48.8052V29.5765C48.688 33.5237 47.5733 37.3771 45.5656 40.7785L45.565 40.7787ZM11.1189 6.65443C11.1189 4.41442 12.9347 2.59857 15.1747 2.59857C17.4148 2.59857 19.2306 4.41442 19.2306 6.65443C19.3286 9.72989 18.2459 11.2388 15.3687 12.0381C15.243 12.0722 15.1087 12.0722 14.9808 12.0381C12.1036 11.2389 11.0208 9.72989 11.1189 6.65443ZM7.96884 22.6071H15.537C15.5072 23.1036 15.5008 23.5832 15.5093 24.0308C15.5157 24.4272 15.8397 24.7448 16.2361 24.7448H34.3095C34.7059 24.7448 35.0299 24.4272 35.0362 24.0308C35.0448 23.5832 35.0362 23.1037 35.0085 22.6071H42.5767C42.9753 22.6092 43.2992 22.2916 43.3056 21.8931C43.344 19.8214 42.9859 16.9421 41.0656 14.9878C39.7101 13.6089 37.7919 12.9076 35.3689 12.9076L35.371 12.9098C33.6852 12.8458 32.0227 13.3019 30.6033 14.212C28.9686 13.3318 27.1314 12.897 25.275 12.9545C23.4187 12.897 21.5794 13.3318 19.9447 14.212C18.5273 13.3019 16.8628 12.8458 15.1791 12.9098C12.7537 12.9098 10.8376 13.6088 9.48234 14.9899C7.56418 16.9422 7.2061 19.8216 7.24233 21.8952V21.8931C7.25085 22.2895 7.57244 22.6071 7.96884 22.6071ZM19.299 16.5262C20.678 15.1217 22.6878 14.4098 25.2729 14.4098C27.8581 14.4098 29.868 15.1217 31.2468 16.5262C33.0521 18.3634 33.5337 21.0978 33.5827 23.2907H31.7519C31.7221 22.0609 31.5963 20.8376 31.3768 19.6292C31.3384 19.3841 31.3001 19.1347 31.2617 18.8832C31.1957 18.4932 30.8291 18.2289 30.439 18.2864C30.0469 18.3439 29.7741 18.7041 29.8231 19.0963C29.8615 19.3499 29.8998 19.5993 29.9382 19.8465C30.1449 20.9825 30.2643 22.1334 30.2963 23.2864H20.245C20.2791 22.1334 20.3984 20.9825 20.603 19.8465C20.6414 19.5993 20.6798 19.3478 20.7181 19.0963C20.7672 18.7041 20.4943 18.344 20.1043 18.2864C19.7122 18.2289 19.3456 18.4931 19.2795 18.8832C19.2412 19.1326 19.2028 19.3819 19.1644 19.627V19.6249C18.947 20.8355 18.8213 22.0588 18.7893 23.2864H16.9649C17.0139 21.0955 17.4956 18.3632 19.2986 16.5258L19.299 16.5262ZM31.315 6.65389C31.315 4.41388 33.1309 2.59803 35.3709 2.59803C37.6109 2.59803 39.4268 4.41388 39.4268 6.65389C39.5248 9.72934 38.4421 11.2383 35.5649 12.0376C35.437 12.0717 35.3027 12.0717 35.177 12.0376C32.2976 11.2383 31.2149 9.72934 31.315 6.65389ZM25.0787 11.8948C25.2066 11.9289 25.3387 11.9289 25.4666 11.8948C29.0195 10.9101 30.2961 9.12835 30.1768 5.32614C30.1768 2.61941 27.9815 0.42627 25.2748 0.42627C22.568 0.42627 20.3749 2.61936 20.3749 5.32614C20.2491 9.12841 21.5258 10.9099 25.0787 11.8948ZM21.8264 5.36215V5.33871C21.8264 3.43545 23.3694 1.8924 25.2727 1.8924C27.1759 1.8924 28.719 3.43545 28.719 5.33871V5.36215C28.8191 8.42058 28.0092 9.63326 25.2727 10.4368C22.5361 9.63539 21.7241 8.42058 21.8264 5.36215Z" fill="white"/>
</svg>
