<svg width="50" height="51" viewBox="0 0 50 51" fill="none" xmlns="http://www.w3.org/2000/svg">
<path d="M48.2143 43.7839H1.78571C1.31211 43.7839 0.85791 43.9721 0.523023 44.307C0.188137 44.6418 0 45.096 0 45.5696V50.0339H50V45.5696C50 45.096 49.8119 44.6418 49.477 44.307C49.1421 43.9721 48.6879 43.7839 48.2143 43.7839ZM37.5 47.3554H12.5C12.2632 47.3554 12.0361 47.2613 11.8687 47.0939C11.7012 46.9264 11.6071 46.6993 11.6071 46.4625C11.6071 46.2257 11.7012 45.9986 11.8687 45.8312C12.0361 45.6637 12.2632 45.5696 12.5 45.5696H37.5C37.7368 45.5696 37.9639 45.6637 38.1313 45.8312C38.2988 45.9986 38.3929 46.2257 38.3929 46.4625C38.3929 46.6993 38.2988 46.9264 38.1313 47.0939C37.9639 47.2613 37.7368 47.3554 37.5 47.3554Z" fill="white"/>
<path d="M24.9999 37.5338C25.9862 37.5338 26.7857 36.7343 26.7857 35.7481C26.7857 34.7619 25.9862 33.9624 24.9999 33.9624C24.0137 33.9624 23.2142 34.7619 23.2142 35.7481C23.2142 36.7343 24.0137 37.5338 24.9999 37.5338Z" fill="white"/>
<path d="M17.8571 12.534H16.9642V17.8912H36.6071V3.60547H16.9642V7.1769H17.8571C18.5675 7.1769 19.2488 7.4591 19.7511 7.96143C20.2535 8.46376 20.5357 9.14507 20.5357 9.85547C20.5321 10.5648 20.2488 11.244 19.7472 11.7456C19.2457 12.2472 18.5664 12.5305 17.8571 12.534ZM24.3133 9.28315C24.3931 9.18797 24.4917 9.11036 24.603 9.05519C24.7142 9.00002 24.8357 8.9685 24.9598 8.96261C25.084 8.95389 25.2086 8.97274 25.3247 9.01781C25.4407 9.06288 25.5454 9.13306 25.6312 9.22333L27.6785 11.2715L31.7732 7.1769H31.2499C31.0131 7.1769 30.786 7.08283 30.6186 6.91539C30.4512 6.74794 30.3571 6.52084 30.3571 6.28404C30.3571 6.04724 30.4512 5.82014 30.6186 5.65269C30.786 5.48525 31.0131 5.39118 31.2499 5.39118H33.9285C34.1653 5.39118 34.3924 5.48525 34.5599 5.65269C34.7273 5.82014 34.8214 6.04724 34.8214 6.28404V8.96261C34.8214 9.19941 34.7273 9.42651 34.5599 9.59396C34.3924 9.7614 34.1653 9.85547 33.9285 9.85547C33.6917 9.85547 33.4646 9.7614 33.2972 9.59396C33.1297 9.42651 33.0357 9.19941 33.0357 8.96261V8.4394L28.3098 13.1653C28.1423 13.3327 27.9153 13.4267 27.6785 13.4267C27.4418 13.4267 27.2147 13.3327 27.0473 13.1653L25.0598 11.1778L21.2205 15.7849C21.1453 15.8751 21.0531 15.9496 20.9492 16.0041C20.8453 16.0587 20.7316 16.0922 20.6147 16.1028C20.4978 16.1134 20.3799 16.1009 20.2679 16.066C20.1558 16.031 20.0517 15.9744 19.9616 15.8992C19.8714 15.8241 19.7969 15.7319 19.7424 15.6279C19.6878 15.524 19.6543 15.4103 19.6437 15.2934C19.6331 15.1765 19.6456 15.0587 19.6805 14.9466C19.7154 14.8345 19.7721 14.7305 19.8473 14.6403L24.3133 9.28315Z" fill="white"/>
<path d="M12.4999 37.5338C13.4862 37.5338 14.2857 36.7343 14.2857 35.7481C14.2857 34.7619 13.4862 33.9624 12.4999 33.9624C11.5137 33.9624 10.7142 34.7619 10.7142 35.7481C10.7142 36.7343 11.5137 37.5338 12.4999 37.5338Z" fill="white"/>
<path d="M6.24998 7.17672C7.72932 7.17672 8.92855 5.97749 8.92855 4.49815C8.92855 3.01882 7.72932 1.81958 6.24998 1.81958C4.77065 1.81958 3.57141 3.01882 3.57141 4.49815C3.57141 5.97749 4.77065 7.17672 6.24998 7.17672Z" fill="white"/>
<path d="M38.3929 0.926793C38.3929 0.689992 38.2988 0.462891 38.1314 0.295447C37.9639 0.128004 37.7368 0.0339355 37.5 0.0339355H16.0714C15.8346 0.0339355 15.6075 0.128004 15.4401 0.295447C15.2727 0.462891 15.1786 0.689992 15.1786 0.926793C15.1786 1.16359 15.2727 1.39069 15.4401 1.55814C15.6075 1.72558 15.8346 1.81965 16.0714 1.81965H37.5C37.7368 1.81965 37.9639 1.72558 38.1314 1.55814C38.2988 1.39069 38.3929 1.16359 38.3929 0.926793Z" fill="white"/>
<path d="M37.4999 37.5338C38.4862 37.5338 39.2857 36.7343 39.2857 35.7481C39.2857 34.7619 38.4862 33.9624 37.4999 33.9624C36.5137 33.9624 35.7142 34.7619 35.7142 35.7481C35.7142 36.7343 36.5137 37.5338 37.4999 37.5338Z" fill="white"/>
<path d="M9.0553 41.9983H15.9446C15.7497 41.2326 15.3052 40.5537 14.6814 40.0687C14.0576 39.5838 13.2901 39.3206 12.4999 39.3206C11.7098 39.3206 10.9422 39.5838 10.3184 40.0687C9.69463 40.5537 9.25018 41.2326 9.0553 41.9983Z" fill="white"/>
<path d="M21.5553 41.9983H28.4446C28.2497 41.2326 27.8052 40.5537 27.1814 40.0687C26.5576 39.5838 25.7901 39.3206 24.9999 39.3206C24.2098 39.3206 23.4422 39.5838 22.8184 40.0687C22.1946 40.5537 21.7502 41.2326 21.5553 41.9983Z" fill="white"/>
<path d="M34.0553 41.9983H40.9446C40.7497 41.2326 40.3052 40.5537 39.6814 40.0687C39.0576 39.5838 38.2901 39.3206 37.4999 39.3206C36.7098 39.3206 35.9422 39.5838 35.3184 40.0687C34.6946 40.5537 34.2502 41.2326 34.0553 41.9983Z" fill="white"/>
<path d="M49.1071 28.6053H35.258L29.7027 21.4624H37.5C37.7368 21.4624 37.9639 21.3683 38.1313 21.2009C38.2988 21.0334 38.3929 20.8063 38.3929 20.5695C38.3929 20.3327 38.2988 20.1056 38.1313 19.9382C37.9639 19.7708 37.7368 19.6767 37.5 19.6767H16.0714C15.8346 19.6767 15.6075 19.7708 15.4401 19.9382C15.2726 20.1056 15.1786 20.3327 15.1786 20.5695C15.1786 20.8063 15.2726 21.0334 15.4401 21.2009C15.6075 21.3683 15.8346 21.4624 16.0714 21.4624H23.8687L18.3134 28.6053H8.92857V12.5338C8.92857 12.0602 9.11671 11.606 9.4516 11.2711C9.78648 10.9363 10.2407 10.7481 10.7143 10.7481H17.8571C17.9722 10.7492 18.0863 10.727 18.1926 10.683C18.2989 10.639 18.3953 10.574 18.4759 10.4919C18.5627 10.4101 18.6317 10.3114 18.6789 10.202C18.726 10.0925 18.7502 9.97447 18.75 9.85526C18.75 9.61846 18.6559 9.39136 18.4885 9.22391C18.321 9.05647 18.0939 8.9624 17.8571 8.9624H3.57143C2.62423 8.9624 1.71582 9.33868 1.04605 10.0084C0.376274 10.6782 0 11.5866 0 12.5338V17.891C0 18.3646 0.188137 18.8188 0.523023 19.1537C0.85791 19.4886 1.31211 19.6767 1.78571 19.6767V12.5338C1.78571 12.297 1.87978 12.0699 2.04723 11.9025C2.21467 11.735 2.44177 11.641 2.67857 11.641C2.91537 11.641 3.14247 11.735 3.30992 11.9025C3.47736 12.0699 3.57143 12.297 3.57143 12.5338V28.6053H0.892857C0.656057 28.6053 0.428955 28.6993 0.261512 28.8668C0.0940686 29.0342 0 29.2613 0 29.4981C0 29.7349 0.0940686 29.962 0.261512 30.1295C0.428955 30.2969 0.656057 30.391 0.892857 30.391H49.1071C49.3439 30.391 49.571 30.2969 49.7385 30.1295C49.9059 29.962 50 29.7349 50 29.4981C50 29.2613 49.9059 29.0342 49.7385 28.8668C49.571 28.6993 49.3439 28.6053 49.1071 28.6053ZM7.14286 28.6053H5.35714V21.4624C5.35714 21.2256 5.45121 20.9985 5.61865 20.8311C5.7861 20.6636 6.0132 20.5695 6.25 20.5695C6.4868 20.5695 6.7139 20.6636 6.88135 20.8311C7.04879 20.9985 7.14286 21.2256 7.14286 21.4624V28.6053ZM20.5759 28.6053L25.7045 22.0106C25.8242 21.8533 25.8871 21.6601 25.883 21.4624H27.6973C27.6933 21.6601 27.7562 21.8533 27.8759 22.0106L32.9955 28.6053H20.5759Z" fill="white"/>
</svg>
