<svg width="51" height="42" viewBox="0 0 51 42" fill="none" xmlns="http://www.w3.org/2000/svg">
<path d="M8.23712 11.8739C10.2641 11.8739 11.9073 10.0691 11.9073 7.8427C11.9073 5.61634 10.2641 3.81152 8.23712 3.81152C6.21011 3.81152 4.56689 5.61634 4.56689 7.8427C4.56689 10.0691 6.21011 11.8739 8.23712 11.8739Z" fill="white"/>
<path d="M4.67267 26.4181C6.69968 26.4181 8.34289 24.6133 8.34289 22.3869C8.34289 20.1605 6.69968 18.3557 4.67267 18.3557C2.64566 18.3557 1.00244 20.1605 1.00244 22.3869C1.00244 24.6133 2.64566 26.4181 4.67267 26.4181Z" fill="white"/>
<path d="M42.3067 11.8739C44.3337 11.8739 45.9769 10.0691 45.9769 7.8427C45.9769 5.61634 44.3337 3.81152 42.3067 3.81152C40.2797 3.81152 38.6365 5.61634 38.6365 7.8427C38.6365 10.0691 40.2797 11.8739 42.3067 11.8739Z" fill="white"/>
<path d="M45.8728 26.418C47.8989 26.418 49.5414 24.6125 49.5414 22.3853C49.5414 20.1581 47.8989 18.3525 45.8728 18.3525C43.8466 18.3525 42.2041 20.1581 42.2041 22.3853C42.2041 24.6125 43.8466 26.418 45.8728 26.418Z" fill="white"/>
<path d="M46.2369 27.8274L43.8673 31.0277L44.2438 27.8274C43.7973 28.0825 42.5355 28.4233 42.3846 30.1191C42.3519 30.4832 42.257 31.1522 42.1481 31.9115L40.362 24.904C40.8023 24.904 41.3017 24.904 41.8354 24.904C41.434 24.1587 41.1882 23.3061 41.1882 22.3851C41.1882 19.6048 43.2917 17.3379 45.8744 17.3379C46.1606 17.3379 46.436 17.3768 46.7098 17.4297C46.7098 17.005 46.7098 16.5756 46.7098 16.1508C46.7098 12.5802 42.674 13.285 42.674 13.285L40.3044 16.4853L40.681 13.285C40.2344 13.5401 38.9695 13.8808 38.8186 15.5767C38.7828 15.9968 38.6599 16.8198 38.5292 17.7253L38.4079 17.2477C38.2959 16.798 37.8913 16.4853 37.4293 16.4853H32.4459C32.4459 15.0913 32.4459 12.6268 32.4459 11.572C32.4459 10.0644 28.4225 9.57739 28.4225 9.57739C28.4225 9.57739 28.4241 12.3157 25.275 12.3157C22.126 12.3157 22.1276 9.57739 22.1276 9.57739C22.1276 9.57739 18.1042 10.0644 18.1042 11.572C18.1042 12.6268 18.1042 15.0913 18.1042 16.4853H13.1208C12.6587 16.4853 12.2542 16.798 12.1391 17.2477L12.0177 17.7222C11.8902 16.8198 11.7688 15.9968 11.7315 15.5767C11.579 13.8808 10.3156 13.5401 9.87223 13.285L10.2456 16.4853L7.87142 13.285C7.87142 13.285 3.83869 12.5802 3.83869 16.1508C3.83869 16.5756 3.83869 17.005 3.83869 17.4297C4.1094 17.3784 4.38634 17.3379 4.67106 17.3379C7.25375 17.3379 9.36036 19.6048 9.36036 22.3851C9.36036 23.3061 9.11143 24.1603 8.71002 24.904C9.24523 24.904 9.73999 24.904 10.1834 24.904L8.3973 31.9084C8.28839 31.1491 8.19348 30.4832 8.16081 30.1191C8.00834 28.4233 6.74811 28.0825 6.30158 27.8274L6.67809 31.0277L4.30855 27.8274C4.30855 27.8274 0.272705 27.1226 0.272705 30.6932C0.272705 33.2977 0.272705 36.0531 0.272705 36.901C0.272705 37.749 1.16576 39.4479 3.53063 39.4479C4.58238 39.4479 5.6279 39.4479 6.47895 39.4479L6.32336 40.0594C6.24713 40.3597 6.31403 40.6817 6.5054 40.9291C6.69677 41.1765 6.99237 41.3212 7.30199 41.3212H43.245C43.2543 41.3212 43.2668 41.3212 43.2761 41.3212C43.8346 41.3212 44.2874 40.8684 44.2874 40.3099C44.2874 40.1372 44.2423 39.9723 44.166 39.8291L44.068 39.4495C44.9191 39.4495 45.9646 39.4495 47.0179 39.4495C49.3797 39.4495 50.2727 37.7505 50.2727 36.9026C50.2727 36.0547 50.2727 33.2993 50.2727 30.6948C50.2712 27.1226 46.2369 27.8274 46.2369 27.8274ZM8.60422 39.2955L13.9003 18.5079H36.6389L41.9381 39.2955H8.60422Z" fill="white"/>
<path d="M23.1934 8.09792C23.7847 8.54445 24.5004 8.80738 25.272 8.80738C26.0437 8.80738 26.7594 8.54445 27.3506 8.09792C28.3479 8.04502 29.0901 7.7852 29.0901 7.7852C28.8676 7.42424 28.7105 6.92793 28.6 6.46896C28.8178 5.95242 28.9423 5.38143 28.9423 4.7762C28.9423 2.55135 27.2993 0.746582 25.2736 0.746582C23.2479 0.746582 21.6034 2.55135 21.6034 4.7762C21.6034 5.38298 21.7294 5.95398 21.9472 6.46896C21.8368 6.92793 21.6781 7.42269 21.4556 7.7852C21.4525 7.78364 22.1962 8.04347 23.1934 8.09792Z" fill="white"/>
<path d="M27.0641 9.49208C27.0595 9.50764 26.6923 10.9032 25.2718 10.9032C23.8638 10.9032 23.4935 9.54809 23.4795 9.49208C23.4344 9.31005 23.2492 9.19959 23.0641 9.24471C22.8789 9.28982 22.77 9.47652 22.8167 9.66011C22.9847 10.3276 23.7144 11.5862 25.2718 11.5862C26.8292 11.5862 27.5589 10.326 27.7269 9.66011C27.7736 9.47808 27.6631 9.29138 27.4795 9.24471C27.2944 9.19959 27.1108 9.31005 27.0641 9.49208Z" fill="white"/>
</svg>
