<svg width="250" height="156" viewBox="0 0 250 156" fill="none" xmlns="http://www.w3.org/2000/svg">
<circle cx="6" cy="6" r="6" fill="#E4B9F8"/>
<circle cx="53.6001" cy="6" r="6" fill="#E4B9F8"/>
<circle cx="101.2" cy="6" r="6" fill="#E4B9F8"/>
<circle cx="148.8" cy="6" r="6" fill="#E4B9F8"/>
<circle cx="196.4" cy="6" r="6" fill="#E4B9F8"/>
<circle cx="244" cy="6" r="6" fill="#E4B9F8"/>
<circle cx="6" cy="42" r="6" fill="#E4B9F8"/>
<circle cx="53.6001" cy="42" r="6" fill="#E4B9F8"/>
<circle cx="101.2" cy="42" r="6" fill="#E4B9F8"/>
<circle cx="148.8" cy="42" r="6" fill="#E4B9F8"/>
<circle cx="196.4" cy="42" r="6" fill="#E4B9F8"/>
<circle cx="244" cy="42" r="6" fill="#E4B9F8"/>
<circle cx="6" cy="78" r="6" fill="#E4B9F8"/>
<circle cx="53.6001" cy="78" r="6" fill="#E4B9F8"/>
<circle cx="101.2" cy="78" r="6" fill="#E4B9F8"/>
<circle cx="148.8" cy="78" r="6" fill="#E4B9F8"/>
<circle cx="196.4" cy="78" r="6" fill="#E4B9F8"/>
<circle cx="244" cy="78" r="6" fill="#E4B9F8"/>
<circle cx="6" cy="114" r="6" fill="#E4B9F8"/>
<circle cx="53.6001" cy="114" r="6" fill="#E4B9F8"/>
<circle cx="101.2" cy="114" r="6" fill="#E4B9F8"/>
<circle cx="148.8" cy="114" r="6" fill="#E4B9F8"/>
<circle cx="196.4" cy="114" r="6" fill="#E4B9F8"/>
<circle cx="244" cy="114" r="6" fill="#E4B9F8"/>
<circle cx="6" cy="150" r="6" fill="#E4B9F8"/>
<circle cx="53.6001" cy="150" r="6" fill="#E4B9F8"/>
<circle cx="101.2" cy="150" r="6" fill="#E4B9F8"/>
<circle cx="148.8" cy="150" r="6" fill="#E4B9F8"/>
<circle cx="196.4" cy="150" r="6" fill="#E4B9F8"/>
<circle cx="244" cy="150" r="6" fill="#E4B9F8"/>
</svg>
