<svg width="41" height="41" viewBox="0 0 41 41" fill="none" xmlns="http://www.w3.org/2000/svg">
<rect x="0.333252" y="0.0833435" width="40" height="40.8333" rx="20" fill="#EDD0FA"/>
<g clip-path="url(#clip0_31_577)">
<path d="M12 14.1025C12 13.5413 12.1877 13.0783 12.5631 12.7136C12.9384 12.3488 13.4264 12.1664 14.027 12.1664C14.6169 12.1664 15.0942 12.346 15.4588 12.7052C15.8342 13.0755 16.0219 13.5581 16.0219 14.153C16.0219 14.6917 15.8396 15.1406 15.4749 15.4998C15.0995 15.8701 14.6062 16.0553 13.9949 16.0553H13.9788C13.3889 16.0553 12.9116 15.8701 12.547 15.4998C12.1823 15.1294 12 14.6636 12 14.1025ZM12.2091 28.8331V17.5873H15.7806V28.8331H12.2091ZM17.7593 28.8331H21.3308V22.5536C21.3308 22.1608 21.3737 21.8578 21.4595 21.6445C21.6096 21.2629 21.8375 20.9403 22.1432 20.6765C22.4488 20.4128 22.8323 20.2809 23.2934 20.2809C24.4946 20.2809 25.0952 21.1283 25.0952 22.823V28.8331H28.6667V22.3853C28.6667 20.7242 28.2913 19.4644 27.5405 18.6058C26.7898 17.7472 25.7977 17.3179 24.5643 17.3179C23.1808 17.3179 22.103 17.9408 21.3308 19.1866V19.2203H21.3147L21.3308 19.1866V17.5873H17.7593C17.7808 17.9464 17.7915 19.0632 17.7915 20.9375C17.7915 22.8118 17.7808 25.4436 17.7593 28.8331Z" fill="#3E1253"/>
</g>
<defs>
<clipPath id="clip0_31_577">
<rect width="16.6667" height="16.6667" fill="white" transform="translate(12 12.1667)"/>
</clipPath>
</defs>
</svg>
