<svg width="40" height="41" viewBox="0 0 40 41" fill="none" xmlns="http://www.w3.org/2000/svg">
<rect y="0.0833435" width="40" height="40.8333" rx="20" fill="#EDD0FA"/>
<g clip-path="url(#clip0_31_578)">
<path d="M17.2228 20.5C17.2228 18.966 18.466 17.722 20.0001 17.722C21.5341 17.722 22.7781 18.966 22.7781 20.5C22.7781 22.0341 21.5341 23.278 20.0001 23.278C18.466 23.278 17.2228 22.0341 17.2228 20.5ZM15.721 20.5C15.721 22.8634 17.6367 24.7791 20.0001 24.7791C22.3634 24.7791 24.2792 22.8634 24.2792 20.5C24.2792 18.1367 22.3634 16.2209 20.0001 16.2209C17.6367 16.2209 15.721 18.1367 15.721 20.5ZM23.4485 16.0513C23.4485 16.6033 23.8962 17.0516 24.4488 17.0516C25.0008 17.0516 25.4491 16.6033 25.4491 16.0513C25.4491 15.4993 25.0014 15.0517 24.4488 15.0517C23.8962 15.0517 23.4485 15.4993 23.4485 16.0513ZM16.6331 27.2831C15.8206 27.2461 15.3791 27.1108 15.0856 26.9964C14.6965 26.8449 14.4192 26.6645 14.127 26.3731C13.8356 26.0816 13.6545 25.8043 13.5037 25.4152C13.3893 25.1217 13.254 24.6801 13.217 23.8677C13.1766 22.9893 13.1685 22.7254 13.1685 20.5C13.1685 18.2747 13.1772 18.0115 13.217 17.1324C13.254 16.3199 13.39 15.879 13.5037 15.5848C13.6552 15.1958 13.8356 14.9184 14.127 14.6263C14.4185 14.3348 14.6958 14.1538 15.0856 14.003C15.3791 13.8886 15.8206 13.7533 16.6331 13.7162C17.5115 13.6758 17.7754 13.6678 20.0001 13.6678C22.2254 13.6678 22.4886 13.6765 23.3677 13.7162C24.1802 13.7533 24.6211 13.8892 24.9153 14.003C25.3043 14.1538 25.5817 14.3348 25.8738 14.6263C26.1653 14.9178 26.3457 15.1958 26.4971 15.5848C26.6116 15.8783 26.7469 16.3199 26.7839 17.1324C26.8243 18.0115 26.8323 18.2747 26.8323 20.5C26.8323 22.7247 26.8243 22.9886 26.7839 23.8677C26.7469 24.6801 26.6109 25.1217 26.4971 25.4152C26.3457 25.8043 26.1653 26.0816 25.8738 26.3731C25.5823 26.6645 25.3043 26.8449 24.9153 26.9964C24.6218 27.1108 24.1802 27.2461 23.3677 27.2831C22.4893 27.3235 22.2254 27.3316 20.0001 27.3316C17.7754 27.3316 17.5115 27.3235 16.6331 27.2831ZM16.5644 12.2172C15.6772 12.2576 15.0714 12.3982 14.5417 12.6042C13.9938 12.8169 13.5293 13.1023 13.0655 13.5654C12.6024 14.0286 12.317 14.493 12.1043 15.0416C11.8983 15.5714 11.7576 16.1772 11.7172 17.0644C11.6762 17.9529 11.6667 18.237 11.6667 20.5C11.6667 22.7631 11.6762 23.0471 11.7172 23.9357C11.7576 24.8229 11.8983 25.4287 12.1043 25.9584C12.317 26.5063 12.6017 26.9715 13.0655 27.4346C13.5286 27.8977 13.9931 28.1824 14.5417 28.3958C15.0721 28.6018 15.6772 28.7425 16.5644 28.7829C17.4536 28.8233 17.737 28.8334 20.0001 28.8334C22.2638 28.8334 22.5472 28.8239 23.4357 28.7829C24.3229 28.7425 24.9287 28.6018 25.4585 28.3958C26.0064 28.1824 26.4709 27.8977 26.9347 27.4346C27.3978 26.9715 27.6825 26.5063 27.8959 25.9584C28.1019 25.4287 28.2432 24.8229 28.2829 23.9357C28.3233 23.0465 28.3327 22.7631 28.3327 20.5C28.3327 18.237 28.3233 17.9529 28.2829 17.0644C28.2425 16.1772 28.1019 15.5714 27.8959 15.0416C27.6825 14.4937 27.3978 14.0292 26.9347 13.5654C26.4715 13.1023 26.0064 12.8169 25.4592 12.6042C24.9287 12.3982 24.3229 12.2569 23.4364 12.2172C22.5479 12.1768 22.2638 12.1667 20.0008 12.1667C17.737 12.1667 17.4536 12.1761 16.5644 12.2172Z" fill="#3E1253"/>
</g>
<defs>
<clipPath id="clip0_31_578">
<rect width="16.6667" height="16.6667" fill="white" transform="translate(11.6667 12.1667)"/>
</clipPath>
</defs>
</svg>
