<svg width="50" height="52" viewBox="0 0 50 52" fill="none" xmlns="http://www.w3.org/2000/svg">
<path fill-rule="evenodd" clip-rule="evenodd" d="M16.5944 45.7438L9.18891 47.3507V51.3591H16.5944V45.7438ZM35.988 28.4898V51.3592H43.3935V20.6936L35.988 21.8355V28.4898ZM34.4597 29.3828L27.0542 30.5246V51.3568H34.4597V29.3828ZM25.5261 51.359V36.847L18.1206 37.6766V51.3587L25.5261 51.359ZM29.4188 4.13358C27.4866 2.20144 24.1703 3.57686 24.1703 6.30807C24.1703 9.03928 27.4866 10.4148 29.4188 8.48255C30.6195 7.27962 30.6195 5.33216 29.4188 4.13358ZM21.9825 22.9553L19.0767 36.4977L22.0742 36.1615L24.7705 23.8526L21.9825 22.9553ZM20.6573 13.0258L20.1311 17.3966L18.688 17.3551C18.2339 17.342 17.9697 16.9512 18.0113 16.7264L18.9915 11.5128C19.057 11.1613 19.1946 10.6963 19.5395 10.5675L22.2664 9.55665C22.5502 9.45186 22.8122 9.36671 23.0917 9.42348L28.4449 10.526C28.7418 10.5872 28.9624 10.7313 29.1414 10.978L31.4272 14.1262C31.6455 14.4296 32.0603 14.5323 32.3988 14.3532L35.5579 12.6874C36.0054 12.4516 36.9137 13.445 36.4639 14.1764L36.4661 14.1786C36.3067 14.4362 36.0251 14.6567 35.6911 14.8204L31.7197 16.7679C31.5385 16.8574 31.2329 16.626 31.1062 16.4862L28.8509 14.0213C28.3924 13.4821 27.6305 13.7463 27.5061 14.3335L26.4581 19.2262C26.3752 19.617 26.6088 20.0077 26.9974 20.1191L31.1237 21.2806C31.4643 21.3767 31.6826 21.667 31.6826 22.0207V28.7125L28.8029 29.088V24.6626C28.8029 24.0011 28.375 23.4138 27.7419 23.2085L21.8231 21.3026C21.4716 21.189 21.2511 20.8528 21.2969 20.4751L22.1724 13.2026C22.2226 12.7834 21.9235 12.4057 21.5043 12.3555C21.0851 12.3075 20.7053 12.6066 20.6573 13.0258ZM1.81821 38.7529L1.46671 51.7693H4.13678L5.31138 38.6718C4.61928 38.7308 3.92719 38.7919 3.14343 38.888C2.83123 38.9251 2.07363 38.814 1.81821 38.7529ZM1.47108 36.9517C0.811737 36.4561 0.357624 35.1789 0.169887 34.2117L10.0184 33.6398C10.1538 33.6332 10.2629 33.6987 10.3088 33.8253L14.2408 45.1387L11.9702 45.6321L9.28267 38.1154C8.9923 37.3142 8.21286 36.8338 7.37232 36.9343C6.58197 37.0303 5.88775 37.0915 5.1913 37.1504C4.50792 37.2094 3.82242 37.2705 2.99496 37.3687C2.37055 37.3556 1.91425 37.2421 1.5693 37.0216C1.53873 36.9954 1.50601 36.9713 1.47108 36.9517ZM6.61694 17.4967C5.19782 16.6802 3.37701 17.1605 2.5496 18.5905C1.72868 20.0096 2.21557 21.8347 3.64121 22.6578V22.66C5.05155 23.4721 6.88767 22.9875 7.70854 21.5662C8.52946 20.1471 8.04258 18.3219 6.61694 17.4989V17.4967ZM5.30921 24.018C7.13438 24.1293 8.94865 24.7057 10.68 25.0376C11.0424 25.1074 11.4114 25.0616 11.7366 24.8585L15.4852 22.5072C16.3345 21.9745 17.0724 23.4547 16.2057 24.0158L11.3982 27.1269L5.04289 26.3387C4.62371 26.2885 4.24382 26.5855 4.19363 27.0046C4.14341 27.4238 4.44034 27.8037 4.85951 27.8539L5.81575 27.9718C5.23499 29.3778 4.99706 30.858 5.0691 32.395L0.00618338 32.692C-0.0789606 30.107 0.720076 26.9939 2.10209 25.0461C2.64353 24.2841 3.59761 24.0134 4.71325 24.0003C4.90974 24.02 5.10835 24.0267 5.30921 24.018ZM50 5.8971L41.3241 10.5496V19.9068L39.798 20.1426L39.7958 0.764138C39.7958 0.342772 40.1386 0 40.5599 0C40.9813 0 41.3241 0.342767 41.3241 0.764138V1.24445L50 5.8971Z" fill="white"/>
</svg>
